<?xml version="1.0" encoding="utf-8"?>
<svg viewBox="0 0 500 500" xmlns="http://www.w3.org/2000/svg" xmlns:bx="https://boxy-svg.com">
  <path d="M 357.453 72.546 C 358.679 71.784 359.977 71.431 361.242 71.419 L 361.227 74.444 C 358.691 74.489 356.375 76.69 356.36 79.753 C 356.35 81.647 357.277 83.398 358.793 84.345 C 359.561 84.825 360.375 85.051 361.174 85.062 L 361.159 88.087 C 357.165 88.04 353.539 84.577 353.563 79.753 C 353.578 76.78 355.061 74.033 357.453 72.546 Z" style="stroke: rgb(0, 0, 0); stroke-width: 0px; fill: rgb(255, 200, 0);" transform="matrix(-0.884161, -0.467183, 0.467183, -0.884161, 636.144417, 317.239733)"/>
  <path d="M 358.261 72.525 C 359.482 71.762 360.778 71.408 362.043 71.397 L 362.043 74.423 C 359.508 74.467 357.203 76.669 357.203 79.732 C 357.203 81.626 358.14 83.378 359.659 84.324 C 360.43 84.805 361.245 85.031 362.043 85.042 L 362.043 88.067 C 358.049 88.02 354.407 84.557 354.407 79.732 C 354.407 76.758 355.876 74.011 358.261 72.525 Z" style="stroke: rgb(0, 0, 0); stroke-width: 0px; fill: rgb(216, 117, 158);" transform="matrix(-0.809017, -0.587785, 0.587785, -0.809017, 601.169885, 354.795873)"/>
  <ellipse style="stroke: rgb(0, 0, 0); stroke-width: 0px; fill: rgb(216, 117, 158);" cx="491.471" cy="487.687" rx="6.536" ry="6.57" bx:origin="2.442 0.5"/>
  <ellipse style="stroke: rgb(0, 0, 0); stroke-width: 0px; fill: rgb(255, 200, 0);" cx="492.098" cy="488.205" rx="6.536" ry="6.57" bx:origin="2.394 0.461"/>
  <path d="M 78.486 69.677 L 85.231 79.12 L 82.242 79.12 L 78.486 73.862 L 76.263 76.973 L 74.732 79.114 L 70.987 73.862 L 67.231 79.12 L 64.242 79.12 L 70.987 69.677 L 74.737 74.927 L 78.486 69.677 Z" style="stroke: rgb(0, 0, 0); stroke-width: 0px; fill: rgb(88, 186, 183);" transform="matrix(0.882947, 0.469472, -0.469472, 0.882947, 43.676147, -26.378162)"/>
  <path d="M 77.908 70.767 L 84.652 80.21 L 81.663 80.21 L 77.908 74.953 L 75.684 78.064 L 74.154 80.204 L 70.408 74.953 L 66.652 80.21 L 63.663 80.21 L 70.408 70.767 L 74.158 76.017 L 77.908 70.767 Z" style="stroke: rgb(0, 0, 0); stroke-width: 0px; fill: rgb(255, 0, 24);" transform="matrix(0.866026, 0.5, -0.5, 0.866026, 47.679435, -26.965199)"/>
  <path d="M 134.485 400.805 L 141.23 410.248 L 138.239 410.248 L 134.485 404.991 L 132.262 408.102 L 130.731 410.242 L 126.985 404.991 L 123.23 410.248 L 120.24 410.248 L 126.985 400.805 L 130.734 406.055 L 134.485 400.805 Z" style="stroke: rgb(0, 0, 0); stroke-width: 0px; fill: rgb(255, 200, 0);" transform="matrix(0.997564, 0.069756, -0.069756, 0.997564, 28.606364, -8.131721)"/>
  <path d="M 135.003 401.071 L 141.748 410.515 L 138.758 410.515 L 135.003 405.257 L 132.78 408.369 L 131.249 410.509 L 127.504 405.257 L 123.748 410.515 L 120.758 410.515 L 127.504 401.071 L 131.253 406.321 L 135.003 401.071 Z" style="stroke: rgb(0, 0, 0); stroke-width: 0px; fill: rgb(216, 117, 158);"/>
  <path d="M 40.02 147.868 L 46.607 160.184 L 33.432 160.184 L 40.02 147.868 Z" style="stroke: rgb(0, 0, 0); stroke-width: 0px; fill: rgb(255, 59, 140);" transform="matrix(0.829037, -0.559193, 0.559193, 0.829037, 23.607624, 375.513947)" bx:shape="triangle 33.432 147.868 13.175 12.316 0.5 0 1@d09a5176"/>
  <path d="M 110.691 220.882 L 117.278 233.198 L 104.103 233.198 L 110.691 220.882 Z" style="stroke: rgb(0, 0, 0); stroke-width: 0px; fill: rgb(255, 200, 0);" transform="matrix(0.788011, -0.615661, 0.615661, 0.788011, -84.733574, 369.204773)" bx:shape="triangle 104.103 220.882 13.175 12.316 0.5 0 1@5ce74819"/>
  <path d="M 9.531 223.794 L 16.118 236.11 L 2.943 236.11 L 9.531 223.794 Z" style="stroke: rgb(0, 0, 0); stroke-width: 0px; fill: rgb(255, 59, 140);" transform="matrix(0.913546, -0.406736, 0.406736, 0.913546, 104.438057, 35.764542)" bx:shape="triangle 2.943 223.794 13.175 12.316 0.5 0 1@b98d3899"/>
  <path d="M 130.458 137.73 L 137.046 150.046 L 123.871 150.046 L 130.458 137.73 Z" style="stroke: rgb(0, 0, 0); stroke-width: 0px; fill: rgb(255, 200, 0);" transform="matrix(0.920505, -0.390731, 0.390731, 0.920505, 29.213928, 160.367172)" bx:shape="triangle 123.871 137.73 13.175 12.316 0.5 0 1@0ba0b005"/>
  <path d="M 37.396 21.772 L 43.983 34.088 L 30.808 34.088 L 37.396 21.772 Z" style="stroke: rgb(0, 0, 0); stroke-width: 0px; fill: rgb(88, 186, 183);" transform="matrix(0.642788, 0.766044, -0.766044, 0.642788, 24.011261, -31.56765)" bx:shape="triangle 30.808 21.772 13.175 12.316 0.5 0 1@3ea78eff"/>
  <path d="M 40.02 147.868 L 46.607 160.184 L 33.432 160.184 L 40.02 147.868 Z" style="stroke: rgb(0, 0, 0); stroke-width: 0px; fill: rgb(255, 200, 0);" transform="matrix(0.559193, 0.829037, -0.829037, 0.559193, 132.986099, -103.807777)" bx:shape="triangle 33.432 147.868 13.175 12.316 0.5 0 1@d09a5176"/>
  <path d="M 263.415 177.509 L 270.002 189.825 L 256.827 189.825 L 263.415 177.509 Z" style="stroke: rgb(0, 0, 0); stroke-width: 0px; fill: rgb(88, 186, 183);" bx:shape="triangle 256.827 177.509 13.175 12.316 0.5 0 1@3c1098d7" bx:origin="0.517 0.5"/>
  <path d="M 40.02 147.868 L 46.607 160.184 L 33.432 160.184 L 40.02 147.868 Z" style="stroke: rgb(0, 0, 0); stroke-width: 0px; fill: rgb(255, 0, 24);" transform="matrix(0.997564, 0.069756, -0.069756, 0.997564, 234.213669, 28.300529)" bx:shape="triangle 33.432 147.868 13.175 12.316 0.5 0 1@d09a5176" bx:origin="0.513 0.412"/>
  <path d="M 28.981 223.424 L 35.569 235.74 L 22.394 235.74 L 28.981 223.424 Z" style="stroke: rgb(0, 0, 0); stroke-width: 0px; fill: rgb(88, 186, 183);" transform="matrix(0.927184, 0.374607, -0.374607, 0.927184, 337.667908, 136.216736)" bx:shape="triangle 22.394 223.424 13.175 12.316 0.5 0 1@71ab4842"/>
  <path d="M 9.531 223.794 L 16.118 236.11 L 2.943 236.11 L 9.531 223.794 Z" style="stroke: rgb(0, 0, 0); stroke-width: 0px; fill: rgb(255, 200, 0);" transform="matrix(0.93358, 0.358368, -0.358368, 0.93358, 352.778381, 142.740189)" bx:shape="triangle 2.943 223.794 13.175 12.316 0.5 0 1@b98d3899"/>
  <path d="M 64.161 93.3 L 70.748 105.616 L 57.573 105.616 L 64.161 93.3 Z" style="stroke: rgb(0, 0, 0); stroke-width: 0px; fill: rgb(88, 186, 183);" transform="matrix(-0.629321, 0.777146, -0.777146, -0.629321, 279.514313, 84.752663)" bx:shape="triangle 57.573 93.3 13.175 12.316 0.5 0 1@83c91006"/>
  <path d="M 40.02 147.868 L 46.607 160.184 L 33.432 160.184 L 40.02 147.868 Z" style="stroke: rgb(0, 0, 0); stroke-width: 0px; fill: rgb(216, 117, 158);" transform="matrix(-0.707107, 0.707107, -0.707107, -0.707107, 298.789307, 153.726974)" bx:shape="triangle 33.432 147.868 13.175 12.316 0.5 0 1@d09a5176"/>
  <path d="M 40.02 147.868 L 46.607 160.184 L 33.432 160.184 L 40.02 147.868 Z" style="stroke: rgb(0, 0, 0); stroke-width: 0px; fill: rgb(216, 117, 158);" transform="matrix(0.559193, -0.829038, 0.829038, 0.559193, 251.478577, 87.419739)" bx:shape="triangle 33.432 147.868 13.175 12.316 0.5 0 1@d09a5176"/>
  <path d="M 162.971 32.055 L 169.558 44.371 L 156.383 44.371 L 162.971 32.055 Z" style="stroke: rgb(0, 0, 0); stroke-width: 0px; fill: rgb(88, 186, 183);" transform="matrix(0.5, -0.866025, 0.866025, 0.5, 286.052155, 261.843811)" bx:shape="triangle 156.383 32.055 13.175 12.316 0.5 0 1@00061056"/>
  <path d="M 193.614 84.48 L 200.201 96.796 L 187.026 96.796 L 193.614 84.48 Z" style="stroke: rgb(0, 0, 0); stroke-width: 0px; fill: rgb(88, 186, 183);" transform="matrix(0.587785, -0.809017, 0.809017, 0.587785, 224.479767, 324.587677)" bx:shape="triangle 187.026 84.48 13.175 12.316 0.5 0 1@62b90430"/>
  <path d="M 9.531 223.794 L 16.118 236.11 L 2.943 236.11 L 9.531 223.794 Z" style="stroke: rgb(0, 0, 0); stroke-width: 0px; fill: rgb(216, 117, 158);" transform="matrix(0.573577, -0.819152, 0.819152, 0.573577, 218.825546, 96.645164)" bx:shape="triangle 2.943 223.794 13.175 12.316 0.5 0 1@b98d3899"/>
  <path d="M 40.02 147.868 L 46.607 160.184 L 33.432 160.184 L 40.02 147.868 Z" style="stroke: rgb(0, 0, 0); stroke-width: 0px; fill: rgb(255, 59, 140);" transform="matrix(0.997564, -0.069757, 0.069757, 0.997564, -38.557854, 140.198212)" bx:shape="triangle 33.432 147.868 13.175 12.316 0.5 0 1@d09a5176"/>
  <path d="M 35.04 194.649 L 41.627 206.965 L 28.452 206.965 L 35.04 194.649 Z" style="stroke: rgb(0, 0, 0); stroke-width: 0px; fill: rgb(88, 186, 183);" transform="matrix(0.984808, -0.173648, 0.173648, 0.984808, -58.183296, 100.032364)" bx:shape="triangle 28.452 194.649 13.175 12.316 0.5 0 1@383b3648"/>
  <rect x="17.433" y="17.021" width="9.91" height="6.766" style="stroke: rgb(0, 0, 0); stroke-width: 0px; fill: rgb(255, 200, 0);" transform="matrix(0.874619, 0.48481, -0.989893, 0.594647, 416.39444, 384.500336)"/>
  <rect x="17.433" y="17.021" width="9.91" height="6.766" style="stroke: rgb(0, 0, 0); stroke-width: 0px; fill: rgb(216, 117, 158);" transform="matrix(0.819152, 0.573576, -1.046629, 0.487917, 418.699585, 383.925293)"/>
  <rect x="17.433" y="17.021" width="9.91" height="6.766" style="stroke: rgb(0, 0, 0); stroke-width: 0px; fill: rgb(255, 200, 0);" transform="matrix(0.587785, 0.809017, -1.148457, 0.120586, 123.643906, 309.713409)"/>
  <rect x="17.433" y="17.021" width="9.91" height="6.766" style="stroke: rgb(0, 0, 0); stroke-width: 0px; fill: rgb(88, 186, 183);" transform="matrix(0.573576, 0.819152, -1.150387, 0.100524, 123.325577, 309.73877)"/>
  <rect x="17.433" y="17.021" width="9.91" height="6.766" style="stroke: rgb(0, 0, 0); stroke-width: 0px; fill: rgb(255, 59, 140);" transform="matrix(0.951057, -0.309017, -0.240209, 1.129511, 313.840088, 128.736618)"/>
  <rect x="17.433" y="17.021" width="9.91" height="6.766" style="stroke: rgb(0, 0, 0); stroke-width: 0px; fill: rgb(255, 200, 0);" transform="matrix(0.927184, -0.374606, -0.160833, 1.143515, 313.262909, 129.811798)"/>
  <rect x="17.433" y="17.021" width="9.91" height="6.766" style="stroke: rgb(0, 0, 0); stroke-width: 0px; fill: rgb(88, 186, 183);" transform="matrix(0.642788, 0.766044, -1.137248, 0.200405, 206.873154, 106.866875)"/>
  <rect x="17.433" y="17.021" width="9.91" height="6.766" style="stroke: rgb(0, 0, 0); stroke-width: 0px; fill: rgb(255, 0, 24);" transform="matrix(0.681998, 0.731354, -1.125201, 0.259648, 205.975555, 107.59549)"/>
  <rect x="17.433" y="17.021" width="9.91" height="6.766" style="stroke: rgb(0, 0, 0); stroke-width: 0px; fill: rgb(255, 59, 140);" transform="matrix(0.190809, 0.981627, -1.091818, -0.376071, 350.547028, 226.294067)"/>
  <rect x="17.433" y="17.021" width="9.91" height="6.766" style="stroke: rgb(0, 0, 0); stroke-width: 0px; fill: rgb(255, 200, 0);" transform="matrix(0.121869, 0.992546, -1.062924, -0.451316, 351.347931, 227.084686)"/>
  <rect x="17.433" y="17.021" width="9.91" height="6.766" style="stroke: rgb(0, 0, 0); stroke-width: 0px; fill: rgb(255, 59, 140);" transform="matrix(0.766044, -0.642788, 0.200405, 1.137248, 468.521179, 70.946877)"/>
  <rect x="17.433" y="17.021" width="9.91" height="6.766" style="stroke: rgb(0, 0, 0); stroke-width: 0px; fill: rgb(255, 200, 0);" transform="matrix(0.809017, -0.587785, 0.120586, 1.148457, 468.491272, 69.466064)"/>
  <path d="M 333.368 411.652 C 334.59 410.889 335.886 410.536 337.151 410.524 L 337.151 413.549 C 334.616 413.595 332.31 415.796 332.31 418.859 C 332.31 420.754 333.248 422.505 334.767 423.452 C 335.538 423.932 336.353 424.158 337.151 424.169 L 337.151 427.194 C 333.157 427.147 329.515 423.684 329.515 418.859 C 329.515 415.886 330.983 413.138 333.368 411.652 Z" style="stroke: rgb(0, 0, 0); stroke-width: 0px; fill: rgb(216, 117, 158);" transform="matrix(0.731353, 0.681999, -0.681999, 0.731353, 375.2103, -114.807609)"/>
  <path d="M 333.164 410.722 C 334.39 409.96 335.688 409.606 336.953 409.595 L 336.938 412.619 C 334.402 412.664 332.086 414.866 332.071 417.929 C 332.061 419.823 332.988 421.574 334.504 422.52 C 335.272 423.001 336.087 423.227 336.885 423.238 L 336.87 426.263 C 332.876 426.216 329.25 422.753 329.274 417.929 C 329.289 414.956 330.772 412.208 333.164 410.722 Z" style="stroke: rgb(0, 0, 0); stroke-width: 0px; fill: rgb(255, 200, 0);" transform="matrix(0.671053, 0.741409, -0.741409, 0.671053, 419.432993, -109.496959)"/>
  <path d="M 99.989 155.23 C 101.211 154.467 102.508 154.114 103.772 154.102 L 103.772 157.127 C 101.238 157.173 98.932 159.374 98.932 162.437 C 98.932 164.332 99.869 166.083 101.388 167.03 C 102.158 167.51 102.973 167.736 103.772 167.747 L 103.772 170.772 C 99.778 170.725 96.136 167.262 96.136 162.437 C 96.136 159.463 97.604 156.716 99.989 155.23 Z" style="stroke: rgb(0, 0, 0); stroke-width: 0px; fill: rgb(216, 117, 158);" transform="matrix(0.798636, -0.601815, 0.601815, 0.798636, -77.629831, 92.862835)"/>
  <path d="M 99.819 155.522 C 101.045 154.761 102.343 154.407 103.608 154.396 L 103.593 157.42 C 101.058 157.464 98.741 159.666 98.726 162.73 C 98.716 164.624 99.644 166.374 101.159 167.321 C 101.927 167.802 102.742 168.028 103.54 168.038 L 103.525 171.063 C 99.531 171.016 95.905 167.554 95.93 162.73 C 95.945 159.757 97.427 157.009 99.819 155.522 Z" style="stroke: rgb(0, 0, 0); stroke-width: 0px; fill: rgb(255, 200, 0);" transform="matrix(0.705273, -0.708936, 0.708936, 0.705273, -85.96018, 118.690582)"/>
  <path d="M 39.22 417.356 C 40.442 416.594 41.738 416.239 43.004 416.229 L 43.004 419.254 C 40.469 419.299 38.163 421.5 38.163 424.563 C 38.163 426.457 39.1 428.209 40.619 429.156 C 41.389 429.636 42.204 429.862 43.004 429.873 L 43.004 432.898 C 39.009 432.851 35.367 429.388 35.367 424.563 C 35.367 421.589 36.836 418.842 39.22 417.356 Z" style="stroke: rgb(0, 0, 0); stroke-width: 0px; fill: rgb(88, 186, 183);" transform="matrix(0.992546, -0.121869, 0.121869, 0.992546, -63.962684, 5.772105)" bx:origin="-2.64 6.572"/>
  <path d="M 29.772 414.712 C 30.998 413.95 32.297 413.596 33.561 413.585 L 33.546 416.609 C 31.01 416.654 28.694 418.855 28.679 421.919 C 28.669 423.813 29.597 425.564 31.112 426.511 C 31.881 426.991 32.695 427.217 33.493 427.228 L 33.478 430.253 C 29.484 430.206 25.858 426.744 25.883 421.919 C 25.898 418.946 27.38 416.198 29.772 414.712 Z" style="stroke: rgb(0, 0, 0); stroke-width: 0px; fill: rgb(255, 0, 24);" transform="matrix(0.999297, -0.037488, 0.037488, 0.999297, -19.699655, 0.939495)" bx:origin="-1.391 6.731"/>
  <path d="M 474.136 231.126 C 475.358 230.363 476.654 230.009 477.919 229.999 L 477.919 233.024 C 475.384 233.068 473.079 235.269 473.079 238.333 C 473.079 240.227 474.016 241.979 475.535 242.925 C 476.306 243.405 477.121 243.632 477.919 243.643 L 477.919 246.668 C 473.925 246.621 470.283 243.158 470.283 238.333 C 470.283 235.359 471.751 232.612 474.136 231.126 Z" style="stroke: rgb(0, 0, 0); stroke-width: 0px; fill: rgb(88, 186, 183);" transform="matrix(-0.981627, 0.190809, -0.190809, -0.981627, 984.967604, 381.825387)"/>
  <path d="M 473.968 231.555 C 475.193 230.794 476.492 230.44 477.757 230.429 L 477.742 233.453 C 475.206 233.498 472.89 235.699 472.875 238.763 C 472.865 240.657 473.793 242.408 475.308 243.354 C 476.076 243.835 476.891 244.06 477.688 244.072 L 477.673 247.097 C 473.679 247.049 470.053 243.587 470.078 238.763 C 470.093 235.79 471.575 233.042 473.968 231.555 Z" style="stroke: rgb(0, 0, 0); stroke-width: 0px; fill: rgb(216, 117, 158);" transform="matrix(-0.999297, 0.037488, -0.037488, -0.999297, 956.45249, 459.591951)"/>
  <path d="M 109.707 253.676 C 110.929 252.913 112.225 252.559 113.49 252.548 L 113.49 255.573 C 110.955 255.618 108.65 257.819 108.65 260.883 C 108.65 262.777 109.587 264.529 111.105 265.475 C 111.877 265.955 112.692 266.182 113.49 266.193 L 113.49 269.217 C 109.496 269.171 105.854 265.708 105.854 260.883 C 105.854 257.909 107.323 255.162 109.707 253.676 Z" style="stroke: rgb(0, 0, 0); stroke-width: 0px; fill: rgb(216, 117, 158);" transform="matrix(-0.87462, 0.484809, -0.484809, -0.87462, 332.071526, 435.885591)"/>
  <path d="M 109.811 254.135 C 111.037 253.373 112.335 253.019 113.6 253.008 L 113.585 256.032 C 111.049 256.077 108.733 258.279 108.717 261.342 C 108.708 263.236 109.635 264.987 111.151 265.934 C 111.919 266.414 112.733 266.64 113.532 266.651 L 113.517 269.676 C 109.523 269.629 105.897 266.166 105.921 261.342 C 105.936 258.369 107.418 255.621 109.811 254.135 Z" style="stroke: rgb(0, 0, 0); stroke-width: 0px; fill: rgb(255, 200, 0);" transform="matrix(-0.807492, 0.589879, -0.589879, -0.807492, 352.551176, 407.628183)"/>
  <path d="M 206.5 374.079 C 207.726 373.317 209.023 372.963 210.288 372.952 L 210.273 375.976 C 207.738 376.022 205.421 378.223 205.406 381.286 C 205.396 383.181 206.324 384.931 207.839 385.878 C 208.608 386.358 209.422 386.584 210.22 386.595 L 210.205 389.62 C 206.211 389.573 202.586 386.111 202.61 381.286 C 202.625 378.313 204.107 375.566 206.5 374.079 Z" style="stroke: rgb(0, 0, 0); stroke-width: 0px; fill: rgb(255, 59, 140);" transform="matrix(-0.502241, -0.864728, 0.864728, -0.502241, -19.572609, 751.305501)"/>
  <path d="M 207.407 373.795 C 208.629 373.033 209.925 372.679 211.19 372.668 L 211.19 375.693 C 208.655 375.738 206.35 377.939 206.35 381.003 C 206.35 382.897 207.287 384.648 208.806 385.595 C 209.577 386.075 210.392 386.302 211.19 386.312 L 211.19 389.337 C 207.196 389.29 203.554 385.828 203.554 381.003 C 203.554 378.03 205.022 375.281 207.407 373.795 Z" style="stroke: rgb(0, 0, 0); stroke-width: 0px; fill: rgb(88, 186, 183);" transform="matrix(-0.422618, -0.906308, 0.906308, -0.422618, -50.294432, 729.963908)"/>
  <path d="M 266.929 76.022 C 268.151 75.26 269.447 74.905 270.712 74.895 L 270.712 77.92 C 268.177 77.965 265.872 80.166 265.872 83.229 C 265.872 85.123 266.809 86.875 268.327 87.822 C 269.098 88.302 269.914 88.528 270.712 88.539 L 270.712 91.564 C 266.718 91.517 263.076 88.054 263.076 83.229 C 263.076 80.256 264.545 77.508 266.929 76.022 Z" style="stroke: rgb(0, 0, 0); stroke-width: 0px; fill: rgb(88, 186, 183);" transform="matrix(0.529919, 0.848048, -0.848048, 0.529919, 196.044426, -187.214383)"/>
  <path d="M 267.65 75.306 C 268.876 74.544 270.174 74.19 271.439 74.179 L 271.424 77.203 C 268.888 77.248 266.572 79.45 266.557 82.513 C 266.547 84.407 267.475 86.158 268.99 87.104 C 269.758 87.585 270.573 87.811 271.37 87.822 L 271.355 90.847 C 267.362 90.8 263.736 87.337 263.76 82.513 C 263.776 79.54 265.258 76.792 267.65 75.306 Z" style="stroke: rgb(0, 0, 0); stroke-width: 0px; fill: rgb(255, 200, 0);" transform="matrix(0.471757, 0.881729, -0.881729, 0.471757, 214.111644, -192.363175)"/>
  <path d="M 388.504 472.272 C 389.73 471.511 391.028 471.157 392.293 471.146 L 392.278 474.17 C 389.742 474.215 387.426 476.416 387.411 479.48 C 387.401 481.374 388.328 483.125 389.844 484.071 C 390.612 484.551 391.426 484.777 392.225 484.789 L 392.21 487.813 C 388.215 487.766 384.59 484.304 384.614 479.48 C 384.629 476.506 386.111 473.759 388.504 472.272 Z" style="stroke: rgb(0, 0, 0); stroke-width: 0px; fill: rgb(255, 200, 0);" transform="matrix(0.940575, 0.339585, -0.339585, 0.940575, 185.907798, -103.42009)"/>
  <path d="M 388.638 472.796 C 389.859 472.034 391.156 471.681 392.421 471.669 L 392.421 474.694 C 389.886 474.74 387.58 476.94 387.58 480.005 C 387.58 481.899 388.517 483.649 390.037 484.596 C 390.807 485.077 391.622 485.304 392.421 485.314 L 392.421 488.339 C 388.427 488.293 384.784 484.829 384.784 480.005 C 384.784 477.031 386.253 474.283 388.638 472.796 Z" style="stroke: rgb(0, 0, 0); stroke-width: 0px; fill: rgb(216, 117, 158);" transform="matrix(0.906308, 0.422617, -0.422617, 0.906308, 239.266787, -119.2577)"/>
  <path d="M 444.126 25.577 L 450.87 35.02 L 447.881 35.02 L 444.126 29.763 L 441.903 32.874 L 440.372 35.015 L 436.627 29.763 L 432.871 35.02 L 429.881 35.02 L 436.627 25.577 L 440.375 30.827 L 444.126 25.577 Z" style="stroke: rgb(0, 0, 0); stroke-width: 0px; fill: rgb(216, 117, 158);"/>
  <path d="M 444.644 25.311 L 451.389 34.753 L 448.4 34.753 L 444.644 29.496 L 442.421 32.607 L 440.89 34.747 L 437.145 29.496 L 433.39 34.753 L 430.399 34.753 L 437.145 25.311 L 440.894 30.56 L 444.644 25.311 Z" style="stroke: rgb(0, 0, 0); stroke-width: 0px; fill: rgb(255, 200, 0);" transform="matrix(0.996195, 0.087155, -0.087155, 0.996195, 4.295144, -38.311834)"/>
  <path d="M 465.387 432.883 L 472.131 442.326 L 469.143 442.326 L 465.387 437.068 L 463.164 440.18 L 461.633 442.32 L 457.888 437.068 L 454.132 442.326 L 451.143 442.326 L 457.888 432.883 L 461.637 438.133 L 465.387 432.883 Z" style="stroke: rgb(0, 0, 0); stroke-width: 0px; fill: rgb(88, 186, 183);" transform="matrix(0.5, -0.866025, 0.866025, 0.5, -148.158131, 618.591527)"/>
  <path d="M 466.267 432.792 L 473.012 442.235 L 470.022 442.235 L 466.267 436.977 L 464.044 440.088 L 462.513 442.229 L 458.767 436.977 L 455.012 442.235 L 452.023 442.235 L 458.767 432.792 L 462.517 438.042 L 466.267 432.792 Z" style="stroke: rgb(0, 0, 0); stroke-width: 0px; fill: rgb(216, 117, 158);" transform="matrix(0.559193, -0.829038, 0.829038, 0.559193, -158.834111, 576.303496)"/>
  <path d="M 473.391 157.635 L 480.135 167.078 L 477.146 167.078 L 473.391 161.821 L 471.168 164.932 L 469.637 167.072 L 465.892 161.821 L 462.136 167.078 L 459.146 167.078 L 465.892 157.635 L 469.64 162.885 L 473.391 157.635 Z" style="stroke: rgb(0, 0, 0); stroke-width: 0px; fill: rgb(255, 200, 0);" transform="matrix(0.034899, -0.999391, 0.999391, 0.034899, 290.992923, 626.044839)"/>
  <path d="M 474.692 157.702 L 481.437 167.145 L 478.447 167.145 L 474.692 161.888 L 472.469 164.999 L 470.938 167.14 L 467.193 161.888 L 463.437 167.145 L 460.448 167.145 L 467.193 157.702 L 470.942 162.952 L 474.692 157.702 Z" style="stroke: rgb(0, 0, 0); stroke-width: 0px; fill: rgb(88, 186, 183);" transform="matrix(0.052336, -0.99863, 0.99863, 0.052336, 284.094358, 624.219999)"/>
  <path d="M 163.594 186.996 L 170.339 196.438 L 167.349 196.438 L 163.594 191.181 L 161.371 194.292 L 159.841 196.432 L 156.095 191.181 L 152.339 196.438 L 149.35 196.438 L 156.095 186.996 L 159.844 192.245 L 163.594 186.996 Z" style="stroke: rgb(0, 0, 0); stroke-width: 0px; fill: rgb(255, 200, 0);" transform="matrix(0.71934, 0.694658, -0.694658, 0.71934, 178.039745, -57.229996)"/>
  <path d="M 164.166 186.48 L 170.911 195.923 L 167.921 195.923 L 164.166 190.666 L 161.944 193.777 L 160.412 195.918 L 156.667 190.666 L 152.911 195.923 L 149.922 195.923 L 156.667 186.48 L 160.416 191.73 L 164.166 186.48 Z" style="stroke: rgb(0, 0, 0); stroke-width: 0px; fill: rgb(216, 117, 158);" transform="matrix(0.669131, 0.743145, -0.743145, 0.669131, 195.16727, -55.949971)"/>
  <path d="M 289.887 280.524 L 296.631 289.968 L 293.642 289.968 L 289.887 284.709 L 287.664 287.821 L 286.133 289.962 L 282.388 284.709 L 278.632 289.968 L 275.642 289.968 L 282.388 280.524 L 286.137 285.774 L 289.887 280.524 Z" style="stroke: rgb(0, 0, 0); stroke-width: 0px; fill: rgb(216, 117, 158);" transform="matrix(0.970296, -0.241922, 0.241922, 0.970296, -60.50778, 77.695723)"/>
  <path d="M 288.816 280.516 L 295.561 289.959 L 292.572 289.959 L 288.816 284.703 L 286.593 287.814 L 285.063 289.953 L 281.318 284.703 L 277.562 289.959 L 274.572 289.959 L 281.318 280.516 L 285.066 285.766 L 288.816 280.516 Z" style="stroke: rgb(0, 0, 0); stroke-width: 0px; fill: rgb(255, 200, 0);" transform="matrix(0.951056, -0.309017, 0.309017, 0.951056, -74.191122, 102.050976)"/>
  <path d="M 431.241 293.513 L 437.987 302.956 L 434.996 302.956 L 431.241 297.699 L 429.019 300.81 L 427.488 302.951 L 423.742 297.699 L 419.986 302.956 L 416.997 302.956 L 423.742 293.513 L 427.492 298.763 L 431.241 293.513 Z" style="stroke: rgb(0, 0, 0); stroke-width: 0px; fill: rgb(216, 117, 158);" transform="matrix(0.5, -0.866025, 0.866025, 0.5, -44.532683, 519.33611)"/>
  <path d="M 430.753 293.828 L 437.498 303.271 L 434.508 303.271 L 430.753 298.014 L 428.53 301.125 L 426.999 303.265 L 423.254 298.014 L 419.498 303.271 L 416.509 303.271 L 423.254 293.828 L 427.003 299.078 L 430.753 293.828 Z" style="stroke: rgb(0, 0, 0); stroke-width: 0px; fill: rgb(255, 200, 0);" transform="matrix(0.406736, -0.913546, 0.913546, 0.406736, -19.412784, 567.205961)"/>
  <ellipse style="stroke: rgb(0, 0, 0); stroke-width: 0px; fill: rgb(216, 117, 158);" cx="427.055" cy="85.549" rx="6.536" ry="6.57"/>
  <ellipse style="stroke: rgb(0, 0, 0); stroke-width: 0px; fill: rgb(255, 200, 0);" cx="426.128" cy="86.067" rx="6.536" ry="6.57"/>
  <ellipse style="stroke: rgb(0, 0, 0); stroke-width: 0px; fill: rgb(255, 200, 0);" cx="357.263" cy="358.027" rx="6.536" ry="6.57"/>
  <ellipse style="stroke: rgb(0, 0, 0); stroke-width: 0px; fill: rgb(216, 117, 158);" cx="355.599" cy="357.508" rx="6.536" ry="6.57"/>
  <ellipse style="stroke: rgb(0, 0, 0); stroke-width: 0px; fill: rgb(88, 186, 183);" cx="33.431" cy="364.125" rx="6.536" ry="6.57"/>
  <ellipse style="stroke: rgb(0, 0, 0); stroke-width: 0px; fill: rgb(255, 0, 24);" cx="33.54" cy="365.161" rx="6.536" ry="6.57"/>
  <ellipse style="stroke: rgb(0, 0, 0); stroke-width: 0px; fill: rgb(216, 117, 158);" cx="198.785" cy="309.177" rx="6.536" ry="6.57"/>
  <ellipse style="stroke: rgb(0, 0, 0); stroke-width: 0px; fill: rgb(255, 200, 0);" cx="197.857" cy="308.659" rx="6.536" ry="6.57"/>
  <ellipse style="stroke: rgb(0, 0, 0); stroke-width: 0px; fill: rgb(216, 117, 158);" cx="237.906" cy="463.645" rx="6.536" ry="6.57"/>
  <ellipse style="stroke: rgb(0, 0, 0); stroke-width: 0px; fill: rgb(255, 200, 0);" cx="236.979" cy="462.091" rx="6.536" ry="6.57"/>
  <ellipse style="stroke: rgb(0, 0, 0); stroke-width: 0px; fill: rgb(216, 117, 158);" cx="56.03" cy="212.747" rx="6.536" ry="6.57"/>
  <ellipse style="stroke: rgb(0, 0, 0); stroke-width: 0px; fill: rgb(88, 186, 183);" cx="57.175" cy="212.747" rx="6.536" ry="6.57"/>
  <ellipse style="stroke: rgb(0, 0, 0); stroke-width: 0px; fill: rgb(88, 186, 183);" cx="458.48" cy="358.198" rx="6.536" ry="6.57"/>
  <ellipse style="stroke: rgb(0, 0, 0); stroke-width: 0px; fill: rgb(255, 200, 0);" cx="458.319" cy="356.431" rx="6.536" ry="6.57"/>
  <ellipse style="stroke: rgb(0, 0, 0); stroke-width: 0px; fill: rgb(216, 117, 158);" cx="61.633" cy="471.864" rx="6.536" ry="6.57"/>
  <ellipse style="stroke: rgb(0, 0, 0); stroke-width: 0px; fill: rgb(88, 186, 183);" cx="60.706" cy="471.346" rx="6.536" ry="6.57"/>
  <ellipse style="stroke: rgb(0, 0, 0); stroke-width: 0px; fill: rgb(216, 117, 158);" cx="21.853" cy="140.402" rx="6.536" ry="6.57"/>
  <ellipse style="stroke: rgb(0, 0, 0); stroke-width: 0px; fill: rgb(255, 200, 0);" cx="22.247" cy="139.788" rx="6.536" ry="6.57"/>
  <ellipse style="stroke: rgb(0, 0, 0); stroke-width: 0px; fill: rgb(216, 117, 158);" cx="307.824" cy="18.41" rx="6.536" ry="6.57"/>
  <ellipse style="stroke: rgb(0, 0, 0); stroke-width: 0px; fill: rgb(255, 200, 0);" cx="306.897" cy="18.41" rx="6.536" ry="6.57"/>
  <rect x="17.433" y="17.021" width="9.91" height="6.766" style="stroke: rgb(0, 0, 0); stroke-width: 0px; fill: rgb(255, 59, 140);" transform="matrix(1, 0, -0.57749, 1, 197.964401, 2.210632)"/>
  <rect x="17.433" y="17.021" width="9.91" height="6.766" style="stroke: rgb(0, 0, 0); stroke-width: 0px; fill: rgb(88, 186, 183);" transform="matrix(0.999848, -0.017452, -0.55995, 1.009926, 198.126175, 1.417053)"/>
</svg>